<svg xmlns="http://www.w3.org/2000/svg" width="79" height="45" fill="#000" viewBox="0 0 79 45">
	<title>IAR Systems AB</title>
	<path d="M72.55 31.54c-.27-.26-.4-.58-.4-.95s.13-.69.4-.95.6-.39.98-.39c.39 0 .72.13.99.4.27.26.4.57.4.94s-.13.69-.4.95c-.28.26-.6.4-.99.4-.38 0-.7-.14-.98-.4Zm.22-1.7c-.2.2-.31.45-.31.75s.1.55.31.76c.2.2.46.3.76.3s.56-.1.77-.3c.2-.2.31-.46.31-.76s-.1-.55-.31-.76c-.21-.2-.46-.3-.77-.3-.3 0-.55.1-.76.3Zm1 1.47-.29-.52h-.1v.52h-.33v-1.46h.56c.15 0 .27.05.37.14.1.09.15.2.15.33a.4.4 0 0 1-.09.26.48.48 0 0 1-.22.17l.32.56h-.37Zm-.4-.79h.19c.08 0 .13-.01.17-.05.05-.03.07-.08.07-.15a.19.19 0 0 0-.07-.15.26.26 0 0 0-.17-.05h-.19v.4Z"></path>
	<path fill="#FE5334" d="M24.32 11.3c-2.04 1.82-5.03 2.04-6.37.55-1.34-1.49-1.17-4.61.86-6.44 2.04-1.82 4.96-1.89 6.52-.15 1.56 1.73 1.02 4.21-1.01 6.03Z"></path>
	<path d="M77.45 22.12c-.27.46-1.31 1.9-3.65 4.18a29.9 29.9 0 0 1-3.2 2.6 24.5 24.5 0 0 1-2.88 1.62c-2.28 1.1-3.76 1.48-5.67 1.48-2.8 0-4.5-.72-5.1-2.15-.2-.44-.3-.92-.3-1.45 0-.54.1-1.11.3-1.73.21-.62.48-1.23.81-1.84a14.7 14.7 0 0 1 2.35-3.2c.77-.8 1.77-1.76 1.8-1.97.03-.24-.14-.4-.41-.46-.34-.08-.7-.2-1.18-.11-.46.1-1.04.72-1.9 1.6 0 0-3.98 4.35-5.27 5.54a20.4 20.4 0 0 1-6.65 4.1c-1.81.68-3.11.65-3.9-.09a6.52 6.52 0 0 1-1.56-3.01l-.46-1.66-4.07 2.5-2.35 1.33c-2.81 1.53-4.91 2.3-6.32 2.3-1.8 0-3.3-.7-4.5-2.09a6.88 6.88 0 0 1-1.25-2.03 27.8 27.8 0 0 1-4.26 2.71A19 19 0 0 1 15 31.5c-.92.3-1.82.45-2.7.45-.89 0-1.8-.21-2.76-.63a8.82 8.82 0 0 1-3.05-2.25.18.18 0 0 0-.26-.02c-.67.53-1.4 1-2.19 1.36-1.33.62-3.67 1.16-4.01-.9-.16-.94.35-1.46.99-2 .78-.68 1.58-1.33 2.31-2.06.42-.41.8-.85 1.17-1.3l.04-.1c.05-1.72.59-3.44 1.6-5.2a14.08 14.08 0 0 1 3.76-4.19c1.52-1.13 2.93-1.7 4.23-1.7 1.86 0 2.78.48 3.06 1.52a4.4 4.4 0 0 1-.32 2.6c-.2.53-.45 1.08-.76 1.62a27.88 27.88 0 0 1-3.65 4.67.17.17 0 0 0-.06.13c.03.41.24.84.85 1.27a3.2 3.2 0 0 0 1.69.63c.42 0 .93-.1 1.5-.3.59-.2 1.18-.48 1.8-.82a21.8 21.8 0 0 0 1.9-1.19c.64-.44 1.28-.9 1.9-1.37l2.05-1.6a30.96 30.96 0 0 1 9.17-5.69c.25-.1 2.29-.73 3-.93 2.01-.53 5.13-.85 7.33.68.7.48 1.94 1.84 1.44 2.76-.06.11-.1.21-.2.3a1.3 1.3 0 0 1-.6.37c-1 .35-1.11-1.37-4.25-.84-.94.16-3 1.04-3.81 1.45-2.1 1.04-3.67 1.97-5.15 3.76-.19.23-.4.72-.45 1l-.02.26c0 .5.48.95 1.29.95.2 0 .42-.04.7-.13 2.07-.8 3.55-1.83 5.45-2.88.27-.15 3.05-1.72 3.78-2.05 1.14-.53 2.93-1.06 4.14-.27a3.31 3.31 0 0 1 1.17 1.66l.32 1c.1.34.2.64.3.9.24.63.73.96.91.96.33 0 .46-.1.8-.28.34-.18 1.55-1.01 1.93-1.34 1.33-1.18 3-2.85 5.05-5.22 1.35-1.56 3-3.75 4.23-3.75 1.08 0 1.81.3 2.2.92l.26.42c.2.31.5.47.7.47.2 0 .6-.05 1.07-.14 0 0 1.63-.46 2.71-.46.25 0 1.27-.02 1.78.23.81.39 1.28.94 1.5 1.58.06.18.12.35.15.54.16 1.2-.3 1.81-.74 2.53l-.36.45a62.73 62.73 0 0 1-2.7 2.7l-.63.56c-.75.7-.93.91-1.08 1.06-.7.74-.88 1.76-.09 1.98.57.12 1.2.01 1.86-.34A26.7 26.7 0 0 0 70 23.62c1.58-1.15 4.87-3.52 5.68-3.89.16-.07.7-.41 1.38-.43.56-.01 1.03.54 1 1.1a4.08 4.08 0 0 1-.61 1.73Z"></path>
</svg>